#!OML:ASF F:\VICON\USERDATA\INSTALL\rory3\rory3.ASF
:FULLY-SPECIFIED
:DEGREES
2460
root -1.47577 17.7022 -8.66664 553.408 -117.69 -1273.99
lowerback 11.0518 3.95857 5.41143
upperback 0.0711434 5.99027 1.00873
thorax -5.66549 2.79557 -2.88808
lowerneck -22.4287 -5.11009 -10.6944
upperneck 30.7123 -6.59045 8.44238
head 15.1636 -2.98228 4.05158
rclavicle -3.10974e-014 -2.06736e-014
rhumerus -24.4884 -3.93316 -83.6697
rradius 34.1409
rwrist 3.14847
rhand -17.5213 9.20997
rfingers 7.12502
rthumb 8.73229 -20.5894
lclavicle -3.10974e-014 -2.06736e-014
lhumerus -37.6092 6.61606 82.3893
lradius 29.6435
lwrist -8.14395
lhand -16.479 25.338
lfingers 7.12502
lthumb 9.73808 55.0929
rfemur 8.82813 -6.65683 29.1381
rtibia 14.0661
rfoot -15.4601 -8.65417
rtoes -5.02137
lfemur -26.293 -2.67879 -18.1154
ltibia 17.8919
lfoot -2.08701 11.6934
ltoes -2.13461
2461
root -1.57709 17.6913 -8.60944 553.188 -117.864 -1273.83
lowerback 11.1081 3.99999 5.34724
upperback 0.081804 6.03816 0.968598
thorax -5.68383 2.81993 -2.90561
lowerneck -22.4063 -5.17386 -10.7763
upperneck 30.5793 -6.64047 8.44729
head 15.1083 -3.0096 4.05291
rclavicle 8.07563e-015 4.37326e-015
rhumerus -24.6037 -3.96688 -83.6611
rradius 34.5104
rwrist 2.78468
rhand -17.5159 9.21378
rfingers 7.12502
rthumb 8.73756 -20.5854
lclavicle 8.07563e-015 4.37326e-015
lhumerus -37.5944 6.79646 82.2883
lradius 29.2343
lwrist -8.58189
lhand -16.578 25.406
lfingers 7.12502
lthumb 9.64255 55.1653
rfemur 9.35123 -6.14558 29.2169
rtibia 13.9688
rfoot -15.2439 -9.30075
rtoes -6.17458
lfemur -26.1111 -2.83326 -18.1384
ltibia 18.2147
lfoot -1.81063 12.3996
ltoes -1.40352
2462
root -1.68067 17.6843 -8.55064 552.813 -117.893 -1273.46
lowerback 11.1083 4.09437 5.18894
upperback 0.109741 6.13576 0.85077
thorax -5.64926 2.8731 -2.95351
lowerneck -22.5576 -5.22668 -10.7677
upperneck 30.6319 -6.71188 8.46126
head 15.1764 -3.03298 4.04428
rclavicle 1.48592e-014 1.8487e-014
rhumerus -24.6943 -4.18837 -83.7406
rradius 34.8109
rwrist 2.34572
rhand -17.7944 8.82796
rfingers 7.12502
rthumb 8.46878 -20.9822
lclavicle 1.48592e-014 1.8487e-014
lhumerus -37.5523 7.35602 81.9149
lradius 28.8828
lwrist -9.69302
lhand -15.2719 25.8725
lfingers 7.12502
lthumb 10.9025 55.5695
rfemur 9.77174 -5.76542 29.0696
rtibia 14.1087
rfoot -15.1133 -9.66586
rtoes -7.34152
lfemur -25.8497 -2.47217 -18.4111
ltibia 18.406
lfoot -1.63121 12.2434
ltoes -0.532429
2463
root -1.78878 17.6786 -8.48342 552.491 -117.717 -1273.22
lowerback 11.0787 4.263 5.07093
upperback 0.186652 6.33029 0.694473
thorax -5.52951 2.9761 -3.07116
lowerneck -22.7456 -5.24011 -10.6004
upperneck 30.6942 -6.78464 8.47052
head 15.2496 -3.03774 4.00592
rclavicle 3.70733e-014 -1.8487e-014
rhumerus -24.6998 -4.68389 -83.823
rradius 34.911
rwrist 2.30839
rhand -17.9353 8.79347
rfingers 7.12502
rthumb 8.33279 -21.0222
lclavicle 3.70733e-014 -1.8487e-014
lhumerus -37.4287 7.73999 81.5124
lradius 28.524
lwrist -10.6589
lhand -13.4874 26.1976
lfingers 7.12502
lthumb 12.6233 55.7961
rfemur 10.2133 -5.60641 28.8127
rtibia 14.4354
rfoot -15.0915 -9.71753
rtoes -8.77273
lfemur -25.3907 -2.05974 -18.6465
ltibia 18.515
lfoot -1.285 11.9361
ltoes 0.0978439
2464
root -1.89927 17.6731 -8.40959 552.291 -117.526 -1273.15
lowerback 11.0301 4.40459 4.97474
upperback 0.257934 6.49625 0.633361
thorax -5.41629 3.06498 -3.09582
lowerneck -22.7037 -5.21487 -10.563
upperneck 30.5807 -6.7684 8.51044
head 15.1856 -3.01955 4.01612
rclavicle 2.54444e-014 -4.37326e-015
rhumerus -24.7262 -5.27566 -83.7861
rradius 34.8935
rwrist 2.72968
rhand -17.7667 9.24567
rfingers 7.12502
rthumb 8.49544 -20.5634
lclavicle 2.54444e-014 -4.37326e-015
lhumerus -37.3139 7.80819 81.4231
lradius 28.0669
lwrist -10.7883
lhand -13.4778 26.5086
lfingers 7.12502
lthumb 12.6326 56.1066
rfemur 10.6724 -5.20924 28.6709
rtibia 14.8432
rfoot -15.0156 -9.7927
rtoes -9.71727
lfemur -24.8278 -2.08585 -18.6974
ltibia 18.6314
lfoot -0.899521 12.0924
ltoes 0.972048
2465
root -2.01161 17.6707 -8.33379 552.141 -117.451 -1273
lowerback 10.9294 4.50635 4.82003
upperback 0.226033 6.60591 0.581684
thorax -5.39563 3.1235 -3.07182
lowerneck -22.5832 -5.20902 -10.5369
upperneck 30.4733 -6.77574 8.51806
head 15.1092 -3.01971 4.00997
rclavicle 1.48442e-013 -5.1684e-015
rhumerus -24.928 -5.58363 -83.8056
rradius 34.9609
rwrist 2.78526
rhand -17.8621 9.27511
rfingers 7.12502
rthumb 8.40347 -20.5377
lclavicle 1.48442e-013 -5.1684e-015
lhumerus -37.3186 7.90495 81.3768
lradius 27.5554
lwrist -10.4235
lhand -15.0693 26.4799
lfingers 7.12502
lthumb 11.0979 56.1664
rfemur 10.9754 -4.9263 28.5278
rtibia 15.2678
rfoot -14.9108 -9.87906
rtoes -10.4258
lfemur -24.4 -1.64767 -18.9562
ltibia 18.7832
lfoot -0.429854 11.8734
ltoes 1.06117
2466
root -2.12792 17.6757 -8.25304 551.72 -117.316 -1272.49
lowerback 10.7612 4.64903 4.56162
upperback 0.164003 6.75008 0.422488
thorax -5.36527 3.20121 -3.10215
lowerneck -22.5353 -5.24003 -10.4856
upperneck 30.5562 -6.87178 8.5561
head 15.1488 -3.05193 4.00114
rclavicle -6.6891e-014 -6.55989e-015
rhumerus -25.2678 -5.86666 -83.8942
rradius 35.1036
rwrist 2.58937
rhand -17.9614 9.20991
rfingers 7.12502
rthumb 8.30763 -20.6067
lclavicle -6.6891e-014 -6.55989e-015
lhumerus -37.4302 8.32987 81.0478
lradius 27.1483
lwrist -10.9214
lhand -15.6868 26.1269
lfingers 7.12502
lthumb 10.5023 55.8446
rfemur 11.205 -4.90886 28.1154
rtibia 15.723
rfoot -14.7153 -9.84731
rtoes -11.5249
lfemur -24.0079 -0.91809 -19.5212
ltibia 18.9344
lfoot 0.305171 11.7471
ltoes 1.52131
